HIERARCHY
ROOT hip
{
	OFFSET 0.000000 0.000000 0.000000
	CHANNELS 6 Xposition Yposition Zposition Xrotation Zrotation Yrotation 
	JOINT abdomen
	{
		OFFSET 0.000000 3.422050 0.000000
		CHANNELS 3 Xrotation Zrotation Yrotation 
		JOINT chest
		{
			OFFSET 0.000000 8.486693 -0.684411
			CHANNELS 3 Xrotation Zrotation Yrotation 
			JOINT neck
			{
				OFFSET 0.000000 10.266162 -0.273764
				CHANNELS 3 Xrotation Zrotation Yrotation 
				JOINT head
				{
					OFFSET 0.000000 3.148285 0.000000
					CHANNELS 3 Xrotation Zrotation Yrotation 
					End Site
					{
						OFFSET 0.000000 3.148289 0.000000
					}
				}
			}
			JOINT lCollar
			{
				OFFSET 3.422053 6.707223 -0.821293
				CHANNELS 3 Yrotation Zrotation Xrotation 
				JOINT lShldr
				{
					OFFSET 3.285171 0.000000 0.000000
					CHANNELS 3 Zrotation Yrotation Xrotation 
					JOINT lForeArm
					{
						OFFSET 10.129278 0.000000 0.000000
						CHANNELS 3 Yrotation Zrotation Xrotation 
						JOINT lHand
						{
							OFFSET 8.486692 0.000000 0.000000
							CHANNELS 3 Zrotation Yrotation Xrotation 
							End Site
							{
								OFFSET 4.106464 0.000000 0.000000
							}
						}
					}
				}
			}
			JOINT rCollar
			{
				OFFSET -3.558935 6.707223 -0.821293
				CHANNELS 3 Yrotation Zrotation Xrotation 
				JOINT rShldr
				{
					OFFSET -3.148289 0.000000 0.000000
					CHANNELS 3 Zrotation Yrotation Xrotation 
					JOINT rForeArm
					{
						OFFSET -10.266159 0.000000 0.000000
						CHANNELS 3 Yrotation Zrotation Xrotation 
						JOINT rHand
						{
							OFFSET -8.349810 0.000000 0.000000
							CHANNELS 3 Zrotation Yrotation Xrotation 
							End Site
							{
								OFFSET -4.106464 0.000000 0.000000
							}
						}
					}
				}
			}
		}
	}
	JOINT lThigh
	{
		OFFSET 5.338403 -1.642589 1.368821
		CHANNELS 3 Xrotation Zrotation Yrotation 
		JOINT lShin
		{
			OFFSET -2.053232 -20.121670 0.000000
			CHANNELS 3 Xrotation Zrotation Yrotation 
			JOINT lFoot
			{
				OFFSET 0.000000 -19.300380 -1.231939
				CHANNELS 3 Xrotation Yrotation Zrotation 
				End Site
				{
					OFFSET 0.000000 -2.463878 4.653993
				}
			}
		}
	}
	JOINT rThigh
	{
		OFFSET -5.338403 -1.642589 1.368821
		CHANNELS 3 Xrotation Zrotation Yrotation 
		JOINT rShin
		{
			OFFSET 2.053232 -20.121670 0.000000
			CHANNELS 3 Xrotation Zrotation Yrotation 
			JOINT rFoot
			{
				OFFSET 0.000000 -19.300380 -1.231939
				CHANNELS 3 Xrotation Yrotation Zrotation 
				End Site
				{
					OFFSET 0.000000 -2.463878 4.653993
				}
			}
		}
	}
}
MOTION
Frames: 11
Frame Time: 0.033264
0.000000 43.528500 0.000000 0.000000 0.000000 0.000000 0.000000 0.000000 0.000000 0.000000 0.000000 0.000000 0.000000 0.000000 0.000000 0.000000 0.000000 0.000000 0.000000 0.000000 0.000000 0.000000 0.000000 0.000000 0.000000 0.000000 0.000000 0.000000 0.000000 0.000000 0.000000 0.000000 0.000000 0.000000 0.000000 0.000000 0.000000 0.000000 0.000000 0.000000 0.000000 0.000000 0.000000 0.000000 0.000000 0.000000 0.000000 0.000000 0.000000 0.000000 0.000000 0.000000 0.000000 0.000000 0.000000 0.000000 0.000000 0.000000 0.000000 0.000000 
-44.001762 5.996777 0.000000 -90.002609 -0.000907 88.998940 -0.563762 -0.283552 -0.413015 -0.689711 -1.364568 -0.969328 -0.787655 3.827953 -0.063062 -1.747424 19.152315 -0.718689 6.556786 13.536053 -0.692557 108.996346 -74.706154 176.208817 -21.910713 -4.853621 -31.798670 -70.101845 17.598154 10.694193 -8.542812 -18.238821 -1.130516 -108.362312 72.892891 177.082642 40.490730 -1.227597 -36.021114 51.996784 0.000000 0.000000 -13.243490 -11.709723 -7.408367 50.535084 6.871357 9.106057 66.665161 1.639622 82.576881 -35.938610 -45.991360 -43.560509 134.963303 19.423637 18.209698 -3.309244 24.840593 13.485176 
-44.001762 5.996777 0.000000 -90.002609 -0.000907 88.998940 -0.563762 -0.283552 -0.413015 -0.689711 -1.364568 -0.969328 -0.772969 4.137947 -0.063969 -1.813920 19.345610 -0.846706 6.556786 13.536053 -0.692557 108.996346 -74.706154 176.208817 -21.910713 -4.853621 -31.798670 -70.101845 17.598154 10.694193 -8.542812 -18.238821 -1.130516 -108.362312 72.892891 177.082642 40.490730 -1.227597 -36.021114 51.996784 0.000000 0.000000 -13.243491 -11.709723 -7.408367 50.535088 6.871358 9.106058 66.665161 1.639622 82.576881 -35.938610 -45.991360 -43.560509 134.963303 19.423637 18.209698 -3.309244 24.840593 13.485176 
-44.001762 5.996777 0.000000 -90.002609 -0.000907 88.998940 -0.563762 -0.283552 -0.413015 -0.689711 -1.364568 -0.969328 -0.758276 4.448057 -0.064796 -1.880968 19.538795 -0.975139 6.556786 13.536053 -0.692557 108.996361 -74.706161 176.208817 -21.910713 -4.853621 -31.798670 -70.101845 17.598154 10.694193 -8.542812 -18.238823 -1.130516 -108.362312 72.892899 177.082642 40.490734 -1.227599 -36.021118 51.996784 0.000000 0.000000 -13.243490 -11.709723 -7.408367 50.535091 6.871357 9.106058 66.665161 1.639622 82.576881 -35.938610 -45.991360 -43.560509 134.963303 19.423639 18.209700 -3.309244 24.840593 13.485176 
-44.001762 5.996777 0.000000 -90.002609 -0.000907 88.998940 -0.563762 -0.283552 -0.413015 -0.689711 -1.364568 -0.969328 -0.743577 4.758274 -0.065544 -1.948569 19.731886 -1.103992 6.556786 13.536053 -0.692557 108.996346 -74.706154 176.208817 -21.910713 -4.853621 -31.798677 -70.101845 17.598154 10.694193 -8.542812 -18.238821 -1.130516 -108.362312 72.892891 177.082642 40.490730 -1.227597 -36.021114 51.996784 0.000000 0.000000 -13.243492 -11.709723 -7.408367 50.535088 6.871358 9.106058 66.665161 1.639620 82.576881 -35.938610 -45.991364 -43.560516 134.963303 19.423639 18.209698 -3.309244 24.840593 13.485176 
-44.001762 5.996777 0.000000 -90.002609 -0.000907 88.998940 -0.563762 -0.283552 -0.413015 -0.689711 -1.364568 -0.969328 -0.728869 5.068598 -0.066213 -2.016727 19.924858 -1.233268 6.556786 13.536054 -0.692557 108.996346 -74.706154 176.208817 -21.910713 -4.853621 -31.798670 -70.101845 17.598156 10.694196 -8.542812 -18.238821 -1.130516 -108.362335 72.892906 177.082642 40.490730 -1.227597 -36.021114 51.996788 0.000000 0.000000 -13.243491 -11.709723 -7.408367 50.535084 6.871358 9.106058 66.665161 1.639622 82.576881 -35.938614 -45.991367 -43.560516 134.963303 19.423637 18.209698 -3.309244 24.840593 13.485176 
-44.001762 5.996777 0.000000 -90.002609 -0.000907 88.998940 -0.563762 -0.283552 -0.413015 -0.689711 -1.364568 -0.969328 -0.714153 5.379023 -0.066802 -2.085444 20.117723 -1.362969 6.556787 13.536055 -0.692557 108.996338 -74.706161 176.208817 -21.910713 -4.853621 -31.798670 -70.101845 17.598156 10.694195 -8.542812 -18.238821 -1.130516 -108.362305 72.892899 177.082642 40.490734 -1.227596 -36.021118 51.996788 0.000000 0.000000 -13.243491 -11.709723 -7.408367 50.535088 6.871358 9.106059 66.665161 1.639622 82.576881 -35.938610 -45.991360 -43.560509 134.963303 19.423639 18.209698 -3.309244 24.840593 13.485177 
-44.001762 5.996777 0.000000 -90.002609 -0.000909 88.998932 -0.563762 -0.283552 -0.413015 -0.689711 -1.364568 -0.969328 -0.699428 5.689545 -0.067312 -2.154723 20.310476 -1.493100 6.556785 13.536053 -0.692557 108.996346 -74.706154 176.208817 -21.910711 -4.853620 -31.798670 -70.101845 17.598152 10.694190 -8.542810 -18.238819 -1.130515 -108.362282 72.892876 177.082657 40.490726 -1.227598 -36.021114 51.996784 0.000000 0.000000 -13.243488 -11.709721 -7.408365 50.535084 6.871356 9.106057 66.665154 1.639625 82.576874 -35.938610 -45.991352 -43.560497 134.963303 19.423635 18.209696 -3.309244 24.840593 13.485176 
-44.001762 5.996777 0.000000 -90.002609 -0.000907 88.998932 -0.563762 -0.283552 -0.413015 -0.689711 -1.364568 -0.969328 -0.684694 6.000157 -0.067742 -2.224568 20.503109 -1.623664 6.556786 13.536053 -0.692557 108.996315 -74.706139 176.208817 -21.910711 -4.853621 -31.798666 -70.101845 17.598154 10.694191 -8.542811 -18.238819 -1.130515 -108.362312 72.892883 177.082642 40.490730 -1.227597 -36.021114 51.996784 0.000000 0.000000 -13.243489 -11.709723 -7.408367 50.535080 6.871357 9.106057 66.665154 1.639627 82.576874 -35.938610 -45.991356 -43.560501 134.963303 19.423637 18.209698 -3.309244 24.840593 13.485176 
-44.001762 5.996777 0.000000 -90.002609 -0.000909 88.998932 -0.563762 -0.283552 -0.413015 -0.689711 -1.364568 -0.969328 -0.669949 6.310859 -0.068092 -2.294981 20.695625 -1.754664 6.556785 13.536052 -0.692557 108.996338 -74.706146 176.208801 -21.910713 -4.853621 -31.798670 -70.101830 17.598152 10.694193 -8.542812 -18.238821 -1.130516 -108.362312 72.892876 177.082626 40.490730 -1.227595 -36.021111 51.996784 0.000000 0.000000 -13.243489 -11.709723 -7.408366 50.535084 6.871356 9.106057 66.665161 1.639622 82.576881 -35.938606 -45.991360 -43.560509 134.963303 19.423637 18.209698 -3.309244 24.840593 13.485176 
-44.001762 5.996777 0.000000 -90.002609 -0.000906 88.998932 -0.563762 -0.283552 -0.413015 -0.689711 -1.364568 -0.969328 -0.655193 6.621642 -0.068361 -2.365965 20.888016 -1.886103 6.556785 13.536052 -0.692557 108.996346 -74.706154 176.208817 -21.910713 -4.853621 -31.798670 -70.101845 17.598154 10.694191 -8.542811 -18.238819 -1.130516 -108.362312 72.892891 177.082642 40.490730 -1.227597 -36.021114 51.996784 0.000000 0.000000 -13.243490 -11.709723 -7.408367 50.535084 6.871357 9.106057 66.665161 1.639622 82.576881 -35.938610 -45.991360 -43.560509 134.963303 19.423637 18.209696 -3.309244 24.840593 13.485176 
